<?xml version="1.0" encoding="UTF-8" standalone="no"?>
<svg
   xmlns:dc="http://purl.org/dc/elements/1.1/"
   xmlns:cc="http://creativecommons.org/ns#"
   xmlns:rdf="http://www.w3.org/1999/02/22-rdf-syntax-ns#"
   xmlns:svg="http://www.w3.org/2000/svg"
   xmlns="http://www.w3.org/2000/svg"
   xmlns:xlink="http://www.w3.org/1999/xlink"
   xmlns:sodipodi="http://sodipodi.sourceforge.net/DTD/sodipodi-0.dtd"
   xmlns:inkscape="http://www.inkscape.org/namespaces/inkscape"
   version="1.1"
   id="svg2"
   height="300"
   width="7700"
   inkscape:version="0.48.4 r9939"
   sodipodi:docname="assets.svg">
  <sodipodi:namedview
     pagecolor="#ffffff"
     bordercolor="#666666"
     borderopacity="1"
     objecttolerance="10"
     gridtolerance="10"
     guidetolerance="10"
     inkscape:pageopacity="0"
     inkscape:pageshadow="2"
     inkscape:window-width="1366"
     inkscape:window-height="705"
     id="namedview4183"
     showgrid="false"
     showguides="true"
     inkscape:guide-bbox="true"
     inkscape:zoom="0.35355339"
     inkscape:cx="6290.2598"
     inkscape:cy="-29.229003"
     inkscape:window-x="-8"
     inkscape:window-y="426"
     inkscape:window-maximized="1"
     inkscape:current-layer="svg2"
     showborder="true" />
  <defs
     id="defs4">
    <linearGradient
       gradientTransform="matrix(1,0,0,-1,202.50021,250.52594)"
       y2="184.14819"
       x2="-80.521103"
       y1="123.9641"
       x1="-86.6157"
       gradientUnits="userSpaceOnUse"
       id="path65_2_">
      <stop
         id="stop4382"
         style="stop-color:#000000;stop-opacity:0.15"
         offset="0" />
      <stop
         id="stop4384"
         style="stop-color:#000000;stop-opacity:0.06"
         offset="0.3" />
      <stop
         id="stop4386"
         style="stop-color:#000000;stop-opacity:0.03"
         offset="1" />
    </linearGradient>
    <linearGradient
       gradientTransform="matrix(1,0,0,-1,202.50021,250.52594)"
       y2="93.574898"
       x2="-127.911"
       y1="136.23849"
       x1="-86.0093"
       gradientUnits="userSpaceOnUse"
       id="path63_2_">
      <stop
         id="stop4374"
         style="stop-color:#000000;stop-opacity:0.15"
         offset="0" />
      <stop
         id="stop4376"
         style="stop-color:#000000;stop-opacity:0.06"
         offset="0.3" />
      <stop
         id="stop4378"
         style="stop-color:#000000;stop-opacity:0.03"
         offset="1" />
    </linearGradient>
    <linearGradient
       gradientTransform="matrix(1,0,0,-1,202.50021,250.52594)"
       y2="216.8683"
       x2="-170.1362"
       y1="155.9202"
       x1="-170.1362"
       gradientUnits="userSpaceOnUse"
       id="path61_2_">
      <stop
         id="stop4366"
         style="stop-color:#000000;stop-opacity:0.15"
         offset="0" />
      <stop
         id="stop4368"
         style="stop-color:#000000;stop-opacity:0.06"
         offset="0.3" />
      <stop
         id="stop4370"
         style="stop-color:#000000;stop-opacity:0.03"
         offset="1" />
    </linearGradient>
    <linearGradient
       gradientTransform="matrix(1,0,0,-1,202.50021,250.52594)"
       y2="188.15109"
       x2="-101.6683"
       y1="98.252197"
       x1="-64.337402"
       gradientUnits="userSpaceOnUse"
       id="path59_2_">
      <stop
         id="stop4360"
         style="stop-color:#E4B022"
         offset="0" />
      <stop
         id="stop4362"
         style="stop-color:#FCD209"
         offset="0.3" />
    </linearGradient>
    <linearGradient
       gradientTransform="matrix(1,0,0,-1,202.50021,250.52594)"
       y2="162.3109"
       x2="-146.69279"
       y1="104.4104"
       x1="-181.73779"
       gradientUnits="userSpaceOnUse"
       id="path57_2_">
      <stop
         id="stop4354"
         style="stop-color:#388B41"
         offset="0" />
      <stop
         id="stop4356"
         style="stop-color:#4CB749"
         offset="1" />
    </linearGradient>
    <linearGradient
       gradientTransform="matrix(1,0,0,-1,202.50021,250.52594)"
       y2="181.0621"
       x2="-114.519"
       y1="250.3918"
       x1="-114.519"
       gradientUnits="userSpaceOnUse"
       id="path55_2_">
      <stop
         id="stop4348"
         style="stop-color:#F06B59"
         offset="0" />
      <stop
         id="stop4350"
         style="stop-color:#DF2227"
         offset="1" />
    </linearGradient>
    <linearGradient
       gradientTransform="matrix(82,0,0,-82,14489.971,47794.699)"
       y2="581.43579"
       x2="-175.6665"
       y1="582.19751"
       x1="-175.6665"
       gradientUnits="userSpaceOnUse"
       id="circle53_2_">
      <stop
         id="stop4342"
         style="stop-color:#d9e4ee;stop-opacity:1;"
         offset="0" />
      <stop
         id="stop4344"
         style="stop-color:#aed9f8;stop-opacity:1;"
         offset="1" />
    </linearGradient>
    <linearGradient
       y2="181.0621"
       x2="-114.519"
       y1="250.3918"
       x1="-114.519"
       gradientTransform="matrix(3.9699543,0,0,-3.9699543,1467.379,1.8003114)"
       gradientUnits="userSpaceOnUse"
       id="linearGradient4512"
       xlink:href="#path55_2_" />
    <linearGradient
       y2="162.3109"
       x2="-146.69279"
       y1="104.4104"
       x1="-181.73779"
       gradientTransform="matrix(3.9699543,0,0,-3.9699543,1467.379,1.8003114)"
       gradientUnits="userSpaceOnUse"
       id="linearGradient4514"
       xlink:href="#path57_2_" />
    <linearGradient
       y2="188.15109"
       x2="-101.6683"
       y1="98.252197"
       x1="-64.337402"
       gradientTransform="matrix(3.9699543,0,0,-3.9699543,1467.379,1.8003114)"
       gradientUnits="userSpaceOnUse"
       id="linearGradient4516"
       xlink:href="#path59_2_" />
    <linearGradient
       y2="216.8683"
       x2="-170.1362"
       y1="155.9202"
       x1="-170.1362"
       gradientTransform="matrix(3.9699543,0,0,-3.9699543,1467.379,1.8003114)"
       gradientUnits="userSpaceOnUse"
       id="linearGradient4518"
       xlink:href="#path61_2_" />
    <linearGradient
       y2="93.574898"
       x2="-127.911"
       y1="136.23849"
       x1="-86.0093"
       gradientTransform="matrix(3.9699543,0,0,-3.9699543,1467.379,1.8003114)"
       gradientUnits="userSpaceOnUse"
       id="linearGradient4520"
       xlink:href="#path63_2_" />
    <linearGradient
       y2="184.14819"
       x2="-80.521103"
       y1="123.9641"
       x1="-86.6157"
       gradientTransform="matrix(3.9699543,0,0,-3.9699543,1467.379,1.8003114)"
       gradientUnits="userSpaceOnUse"
       id="linearGradient4522"
       xlink:href="#path65_2_" />
    <linearGradient
       y2="581.43579"
       x2="-175.6665"
       y1="582.19751"
       x1="-175.6665"
       gradientTransform="matrix(82,0,0,-82,14489.971,47794.699)"
       gradientUnits="userSpaceOnUse"
       id="linearGradient4524"
       xlink:href="#circle53_2_" />
    <linearGradient
       y2="581.43579"
       x2="-175.6665"
       y1="582.19751"
       x1="-175.6665"
       gradientTransform="matrix(82,0,0,-82,14489.971,47794.699)"
       gradientUnits="userSpaceOnUse"
       id="linearGradient4564"
       xlink:href="#circle53_2_" />
    <filter
       inkscape:collect="always"
       id="filter4212"
       x="-0.012169811"
       width="1.0243396"
       y="-0.011834862"
       height="1.0236697"
       color-interpolation-filters="sRGB">
      <feGaussianBlur
         inkscape:collect="always"
         stdDeviation="1.1506116"
         id="feGaussianBlur4214" />
    </filter>
  </defs>
  <metadata
     id="metadata7">
    <rdf:RDF>
      <cc:Work
         rdf:about="">
        <dc:format>image/svg+xml</dc:format>
        <dc:type
           rdf:resource="http://purl.org/dc/dcmitype/StillImage" />
        <dc:title />
      </cc:Work>
    </rdf:RDF>
  </metadata>
  <g
     transform="translate(0,-752.36218)"
     id="layer1">
    <g
       transform="matrix(0.44394613,0,0,0.44394613,-294.54157,1192.9977)"
       id="g4546">
      <g
         transform="matrix(1.1077191,0,0,1.1077191,-109.61183,57.463159)"
         id="g3792">
        <circle
           r="31.236"
           cy="85.711998"
           cx="85.314003"
           id="circle53_1_"
           style="fill:#d5d5d5;fill-opacity:1"
           transform="matrix(6.738074,0,0,6.738074,427.3039,-1231.0296)"
           d="m 116.55,85.711998 c 0,17.251162 -13.98483,31.236002 -31.235997,31.236002 -17.251166,0 -31.236,-13.98484 -31.236,-31.236002 0,-17.251166 13.984834,-31.236 31.236,-31.236 17.251167,0 31.235997,13.984834 31.235997,31.236 z"
           sodipodi:cx="85.314003"
           sodipodi:cy="85.711998"
           sodipodi:rx="31.236"
           sodipodi:ry="31.236" />
        <path
           style="fill:#f7f7f7;fill-opacity:1;fill-rule:nonzero;stroke:none"
           d="m 1214.1535,-652.61013 c 0,116.06552 -94.0897,210.15521 -210.1551,210.15521 -29.01641,0 -56.65931,-5.88062 -81.80193,-16.51505 67.54514,-172.77053 85.28233,-248.08566 184.16233,-373.57457 25.1427,10.63444 27.2263,12.31693 46.2416,31.33224 19.0154,19.0153 34.4037,41.65765 45.038,66.80028 10.6345,25.14261 16.5151,52.78552 16.5151,81.80189 z"
           id="path3837"
           inkscape:connector-curvature="0" />
        <g
           transform="translate(684.57143,-534.78545)"
           id="g4539"
           style="stroke:none">
          <g
             id="g4536"
             style="stroke:none">
            <path
               id="path3295"
               d="m 502.32464,-401.5345 -288.29904,294.51424 67.46078,4.11109 -100.86187,288.26064 248.77132,-323.94019 -65.36091,-3.38268 138.28972,-259.5631 z"
               style="fill:#00b4ff;fill-opacity:1;stroke:none"
               inkscape:connector-curvature="0" />
          </g>
          <g
             id="g4100"
             style="fill:#9ce2ff;fill-opacity:1;stroke:none"
             transform="matrix(0.71817716,-0.01191891,0.01191891,0.71817716,969.54684,-198.08628)">
            <path
               id="path4096"
               d="m -671.06935,-264.29447 -376.21715,371.87614 122.14882,8.97076 z"
               style="fill:#9ce2ff;fill-opacity:1;stroke:none"
               inkscape:connector-curvature="0" />
            <path
               id="path4098"
               d="m -1093.3723,490.65651 137.74567,-381.62974 31.31582,4.59729 z"
               style="fill:#9ce2ff;fill-opacity:1;stroke:none"
               inkscape:connector-curvature="0" />
          </g>
        </g>
      </g>
    </g>
  </g>
  <g
     style="font-size:274.00610352px;font-style:normal;font-variant:normal;font-weight:normal;font-stretch:normal;line-height:125%;letter-spacing:0px;word-spacing:0px;fill:#bfbf3b;fill-opacity:1;stroke:none;font-family:Open Sans;-inkscape-font-specification:Open Sans"
     id="text4212">
    <path
       d="m 336.54435,128.74255 226.9113,0 0,48.16514 -226.9113,0 0,-48.16514 z m 0,92.04893 226.9113,0 0,48.16513 -226.9113,0 0,-48.16513 z m 226.9113,-185.16819 0,48.165135 -226.9113,0 0,-48.165135 226.9113,0 z"
       id="path4228"
       inkscape:connector-curvature="0" />
  </g>
  <g
     style="font-size:274.00610352px;font-style:normal;font-variant:normal;font-weight:normal;font-stretch:normal;line-height:125%;letter-spacing:0px;word-spacing:0px;fill:#42442e;fill-opacity:1;stroke:none;filter:url(#filter4212);font-family:Open Sans;-inkscape-font-specification:Open Sans"
     id="text4212-1">
    <path
       d="m 636.54435,128.74255 226.9113,0 0,48.16514 -226.9113,0 0,-48.16514 z m 0,92.04893 226.9113,0 0,48.16513 -226.9113,0 0,-48.16513 z m 226.9113,-185.16819 0,48.165135 -226.9113,0 0,-48.165135 226.9113,0 z"
       id="path4225"
       inkscape:connector-curvature="0" />
  </g>
  <g
     transform="scale(0.82716633,1.2089467)"
     style="font-size:227.69309998px;font-style:normal;font-variant:normal;font-weight:800;font-stretch:normal;line-height:125%;letter-spacing:-0.00914894px;word-spacing:0px;fill:#ffffff;fill-opacity:1;stroke:none;font-family:Open Sans;-inkscape-font-specification:Open Sans Ultra-Bold"
     id="text4182">
    <path
       d="m 1265.7925,204.56802 -8.0049,-30.46284 -52.8096,0 -8.2272,30.46284 -48.2514,0 53.032,-163.209699 58.591,0 53.6991,163.209699 -48.029,0 z m -17.1215,-66.4846 -7.0042,-26.68279 q -2.4459,-8.89426 -6.0036,-23.0139 -3.4466,-14.11964 -4.5584,-20.234445 -1.0006,5.670091 -4.0024,18.677949 -2.8906,13.007858 -13.0078,51.253186 l 34.5764,0 z"
       id="path4206"
       inkscape:connector-curvature="0" />
    <path
       d="m 1402.3102,204.56802 -33.2423,-117.070716 -1.0006,0 q 2.3348,29.906956 2.3348,46.472516 l 0,70.5982 -38.9124,0 0,-162.542629 58.4797,0 33.9094,115.403049 0.8894,0 33.2423,-115.403049 58.591,0 0,162.542629 -40.3577,0 0,-71.26527 q 0,-5.55891 0.1112,-12.34079 0.2223,-6.78187 1.5565,-33.2423 l -1.0006,0 -32.7976,116.84836 -41.8031,0 z"
       id="path4208"
       inkscape:connector-curvature="0" />
    <path
       d="m 1669.5736,93.723287 q 0,27.238673 -16.1208,42.136563 -16.0097,14.78671 -45.5831,14.78671 l -12.3408,0 0,53.92146 -43.9154,0 0,-162.542629 56.2562,0 q 30.7964,0 46.2502,13.452571 15.4537,13.45257 15.4537,38.245325 z m -74.0447,21.123873 8.0049,0 q 9.8948,0 15.6761,-5.55891 5.8924,-5.55892 5.8924,-15.342606 0,-16.454385 -18.2332,-16.454385 l -11.3402,0 0,37.355901 z"
       id="path4210"
       inkscape:connector-curvature="0" />
    <path
       d="m 1695.6914,204.56802 0,-162.542629 43.9154,0 0,127.076769 62.5934,0 0,35.46586 -106.5088,0 z"
       id="path4212"
       inkscape:connector-curvature="0" />
    <path
       d="m 1828.2067,204.56802 0,-162.542629 44.1378,0 0,162.542629 -44.1378,0 z"
       id="path4214"
       inkscape:connector-curvature="0" />
    <path
       d="m 1979.0665,204.56802 -43.9154,0 0,-126.632048 -39.6907,0 0,-35.910581 123.1856,0 0,35.910581 -39.5795,0 0,126.632048 z"
       id="path4216"
       inkscape:connector-curvature="0" />
    <path
       d="m 2180.2901,42.025391 0,97.836879 q 0,31.90816 -18.1221,49.47433 -18.0109,17.45499 -52.0314,17.45499 -33.2423,0 -51.142,-17.01028 -17.7886,-17.01027 -17.7886,-48.91844 l 0,-98.837479 44.1378,0 0,95.390959 q 0,17.23263 6.4484,25.01511 6.4483,7.78248 19.0114,7.78248 13.4526,0 19.4562,-7.6713 6.1148,-7.78248 6.1148,-25.34865 l 0,-95.168599 43.9155,0 z"
       id="path4218"
       inkscape:connector-curvature="0" />
    <path
       d="m 2352.6072,119.85018 q 0,40.69125 -22.458,62.70455 -22.3468,22.01329 -62.9269,22.01329 l -52.5873,0 0,-162.542629 56.2562,0 q 39.1348,0 60.3698,20.012089 21.3462,20.012089 21.3462,57.8127 z m -45.583,1.5565 q 0,-22.346836 -8.8943,-33.131128 -8.7831,-10.784293 -26.794,-10.784293 l -12.7855,0 0,91.055001 9.7837,0 q 20.0121,0 29.3511,-11.56254 9.339,-11.67372 9.339,-35.57704 z"
       id="path4220"
       inkscape:connector-curvature="0" />
    <path
       d="m 2478.3406,204.56802 -96.5027,0 0,-162.542629 96.5027,0 0,35.243512 -52.5873,0 0,25.571007 48.6961,0 0,35.24351 -48.6961,0 0,30.6852 52.5873,0 0,35.7994 z"
       id="path4222"
       inkscape:connector-curvature="0" />
  </g>
  <g
     transform="scale(0.82716633,1.2089467)"
     style="font-size:227.69309998px;font-style:normal;font-variant:normal;font-weight:800;font-stretch:normal;line-height:125%;letter-spacing:-0.00914894px;word-spacing:0px;fill:#708090;fill-opacity:1;stroke:none;font-family:Open Sans;-inkscape-font-specification:Open Sans Ultra-Bold"
     id="text4206">
    <path
       d="m 2716.5284,204.56802 -8.0048,-30.46284 -52.8097,0 -8.2272,30.46284 -48.2513,0 53.032,-163.209699 58.5909,0 53.6991,163.209699 -48.029,0 z m -17.1214,-66.4846 -7.0043,-26.68279 q -2.4459,-8.89426 -6.0036,-23.0139 -3.4465,-14.11964 -4.5583,-20.234445 -1.0006,5.670091 -4.0024,18.677949 -2.8906,13.007858 -13.0079,51.253186 l 34.5765,0 z"
       id="path4187"
       inkscape:connector-curvature="0" />
    <path
       d="m 2853.0462,204.56802 -33.2423,-117.070716 -1.0006,0 q 2.3347,29.906956 2.3347,46.472516 l 0,70.5982 -38.9124,0 0,-162.542629 58.4798,0 33.9094,115.403049 0.8894,0 33.2423,-115.403049 58.591,0 0,162.542629 -40.3578,0 0,-71.26527 q 0,-5.55891 0.1112,-12.34079 0.2224,-6.78187 1.5565,-33.2423 l -1.0006,0 -32.7976,116.84836 -41.803,0 z"
       id="path4189"
       inkscape:connector-curvature="0" />
    <path
       d="m 3120.3096,93.723287 q 0,27.238673 -16.1208,42.136563 -16.0097,14.78671 -45.5831,14.78671 l -12.3408,0 0,53.92146 -43.9154,0 0,-162.542629 56.2562,0 q 30.7963,0 46.2501,13.452571 15.4538,13.45257 15.4538,38.245325 z m -74.0447,21.123873 8.0048,0 q 9.8949,0 15.6762,-5.55891 5.8924,-5.55892 5.8924,-15.342606 0,-16.454385 -18.2332,-16.454385 l -11.3402,0 0,37.355901 z"
       id="path4191"
       inkscape:connector-curvature="0" />
    <path
       d="m 3146.4274,204.56802 0,-162.542629 43.9154,0 0,127.076769 62.5934,0 0,35.46586 -106.5088,0 z"
       id="path4193"
       inkscape:connector-curvature="0" />
    <path
       d="m 3278.9427,204.56802 0,-162.542629 44.1378,0 0,162.542629 -44.1378,0 z"
       id="path4195"
       inkscape:connector-curvature="0" />
    <path
       d="m 3429.8025,204.56802 -43.9155,0 0,-126.632048 -39.6906,0 0,-35.910581 123.1855,0 0,35.910581 -39.5794,0 0,126.632048 z"
       id="path4197"
       inkscape:connector-curvature="0" />
    <path
       d="m 3631.026,42.025391 0,97.836879 q 0,31.90816 -18.122,49.47433 -18.0109,17.45499 -52.0315,17.45499 -33.2423,0 -51.142,-17.01028 -17.7885,-17.01027 -17.7885,-48.91844 l 0,-98.837479 44.1378,0 0,95.390959 q 0,17.23263 6.4483,25.01511 6.4484,7.78248 19.0115,7.78248 13.4526,0 19.4562,-7.6713 6.1148,-7.78248 6.1148,-25.34865 l 0,-95.168599 43.9154,0 z"
       id="path4199"
       inkscape:connector-curvature="0" />
    <path
       d="m 3803.3432,119.85018 q 0,40.69125 -22.458,62.70455 -22.3468,22.01329 -62.9269,22.01329 l -52.5873,0 0,-162.542629 56.2562,0 q 39.1347,0 60.3698,20.012089 21.3462,20.012089 21.3462,57.8127 z m -45.5831,1.5565 q 0,-22.346836 -8.8942,-33.131128 -8.7831,-10.784293 -26.794,-10.784293 l -12.7855,0 0,91.055001 9.7837,0 q 20.0121,0 29.351,-11.56254 9.339,-11.67372 9.339,-35.57704 z"
       id="path4201"
       inkscape:connector-curvature="0" />
    <path
       d="m 3929.0766,204.56802 -96.5027,0 0,-162.542629 96.5027,0 0,35.243512 -52.5873,0 0,25.571007 48.6961,0 0,35.24351 -48.6961,0 0,30.6852 52.5873,0 0,35.7994 z"
       id="path4203"
       inkscape:connector-curvature="0" />
  </g>
  <g
     id="g4357"
     transform="matrix(0.99978769,0,0,0.99994672,0.70063905,0.13407286)">
    <g
       id="g4354">
      <path
         style="opacity:0.98000004;fill:#282828;fill-opacity:1;stroke:none"
         d="m 3330.0386,0.24900582 239.9229,0 c 16.6146,0 29.9903,13.35778918 29.9903,29.95019818 l 0,239.601586 c 0,16.59241 -13.3757,29.9502 -29.9903,29.9502 l -239.9229,0 c -16.6147,0 -29.9903,-13.35779 -29.9903,-29.9502 l 0,-239.601586 c 0,-16.592409 13.3756,-29.95019818 29.9903,-29.95019818 z"
         id="rect4202"
         inkscape:connector-curvature="0" />
    </g>
    <path
       sodipodi:nodetypes="ccccc"
       inkscape:connector-curvature="0"
       id="path4213"
       d="m 3329.9605,-0.13165223 c -2.7167,-0.0367786 -29.9183,-0.0367786 -29.8904,30.44693423 l 269.3663,269.550638 c 17.4927,0 30.6337,-13.07919 30.6337,-29.97149 z"
       style="font-size:medium;font-style:normal;font-variant:normal;font-weight:normal;font-stretch:normal;text-indent:0;text-align:start;text-decoration:none;line-height:normal;letter-spacing:normal;word-spacing:normal;text-transform:none;direction:ltr;block-progression:tb;writing-mode:lr-tb;text-anchor:start;baseline-shift:baseline;color:#000000;fill:#d2e2b4;fill-opacity:1;fill-rule:evenodd;stroke:none;visibility:visible;display:inline;overflow:visible;enable-background:accumulate;font-family:sans-serif" />
    <path
       sodipodi:nodetypes="ccccccc"
       inkscape:connector-curvature="0"
       id="path4215"
       d="M 3569.6835,-0.11805644 3514.1702,63.25794 3300.0064,269.75452 c -0.01,13.74691 9.5191,30.36416 29.9132,30.12483 l 208.6931,-212.15803 61.3239,-57.891146 c 0.9624,-8.476567 -7.9724,-29.98211303 -30.2531,-29.94823044 z"
       style="font-size:medium;font-style:normal;font-variant:normal;font-weight:normal;font-stretch:normal;text-indent:0;text-align:start;text-decoration:none;line-height:normal;letter-spacing:normal;word-spacing:normal;text-transform:none;direction:ltr;block-progression:tb;writing-mode:lr-tb;text-anchor:start;baseline-shift:baseline;color:#000000;fill:#d2e2b4;fill-opacity:1;fill-rule:evenodd;stroke:none;visibility:visible;display:inline;overflow:visible;enable-background:accumulate;font-family:sans-serif" />
  </g>
  <g
     transform="matrix(0.99978769,0,0,0.99994672,300.70023,0.13407286)"
     id="g4363">
    <g
       id="g4365">
      <path
         inkscape:connector-curvature="0"
         id="path4367"
         d="m 3330.0386,0.24900582 239.9229,0 c 16.6146,0 29.9903,13.35778918 29.9903,29.95019818 l 0,239.601586 c 0,16.59241 -13.3757,29.9502 -29.9903,29.9502 l -239.9229,0 c -16.6147,0 -29.9903,-13.35779 -29.9903,-29.9502 l 0,-239.601586 c 0,-16.592409 13.3756,-29.95019818 29.9903,-29.95019818 z"
         style="opacity:0.98000004;fill:#0b0b0b;fill-opacity:1;stroke:none" />
    </g>
    <path
       style="font-size:medium;font-style:normal;font-variant:normal;font-weight:normal;font-stretch:normal;text-indent:0;text-align:start;text-decoration:none;line-height:normal;letter-spacing:normal;word-spacing:normal;text-transform:none;direction:ltr;block-progression:tb;writing-mode:lr-tb;text-anchor:start;baseline-shift:baseline;color:#000000;fill:#bfbf8d;fill-opacity:1;fill-rule:evenodd;stroke:none;visibility:visible;display:inline;overflow:visible;enable-background:accumulate;font-family:sans-serif"
       d="m 3329.9605,-0.13165223 c -2.7167,-0.0367786 -29.9183,-0.0367786 -29.8904,30.44693423 l 269.3663,269.550638 c 17.4927,0 30.6337,-13.07919 30.6337,-29.97149 z"
       id="path4369"
       inkscape:connector-curvature="0"
       sodipodi:nodetypes="ccccc" />
    <path
       style="font-size:medium;font-style:normal;font-variant:normal;font-weight:normal;font-stretch:normal;text-indent:0;text-align:start;text-decoration:none;line-height:normal;letter-spacing:normal;word-spacing:normal;text-transform:none;direction:ltr;block-progression:tb;writing-mode:lr-tb;text-anchor:start;baseline-shift:baseline;color:#000000;fill:#bfbf8d;fill-opacity:1;fill-rule:evenodd;stroke:none;visibility:visible;display:inline;overflow:visible;enable-background:accumulate;font-family:sans-serif"
       d="M 3569.6835,-0.11805644 3514.1702,63.25794 3300.0064,269.75452 c -0.01,13.74691 9.5191,30.36416 29.9132,30.12483 l 208.6931,-212.15803 61.3239,-57.891146 c 0.9624,-8.476567 -7.9724,-29.98211303 -30.2531,-29.94823044 z"
       id="path4371"
       inkscape:connector-curvature="0"
       sodipodi:nodetypes="ccccccc" />
  </g>
  <text
     xml:space="preserve"
     style="font-size:239.93621826px;font-style:normal;font-weight:normal;line-height:125%;letter-spacing:0px;word-spacing:0px;fill:#708090;fill-opacity:1;stroke:none;font-family:Sans"
     x="4527.7358"
     y="214.24969"
     id="text3151"
     sodipodi:linespacing="125%"
     transform="scale(0.8687144,1.1511263)"><tspan
       sodipodi:role="line"
       id="tspan3153"
       x="4527.7358"
       y="214.24969"
       style="font-style:normal;font-variant:normal;font-weight:bold;font-stretch:normal;font-family:Segoe UI;-inkscape-font-specification:Segoe UI Bold">PLAYLIST</tspan></text>
  <text
     xml:space="preserve"
     style="font-size:239.93621826px;font-style:normal;font-weight:normal;line-height:125%;letter-spacing:0px;word-spacing:0px;fill:#ffffff;fill-opacity:1;stroke:none;font-family:Sans"
     x="5678.8613"
     y="214.24969"
     id="text3151-1"
     sodipodi:linespacing="125%"
     transform="scale(0.8687144,1.1511263)"><tspan
       sodipodi:role="line"
       id="tspan3153-7"
       x="5678.8613"
       y="214.24969"
       style="font-style:normal;font-variant:normal;font-weight:bold;font-stretch:normal;fill:#ffffff;fill-opacity:1;font-family:Segoe UI;-inkscape-font-specification:Segoe UI Bold">PLAYLIST</tspan></text>
  <text
     xml:space="preserve"
     style="font-size:252.60095215px;font-style:normal;font-weight:normal;line-height:125%;letter-spacing:0px;word-spacing:0px;fill:#708090;fill-opacity:1;stroke:none;font-family:Sans"
     x="6504.5674"
     y="225.55861"
     id="text3151-17"
     sodipodi:linespacing="125%"
     transform="scale(0.91456849,1.0934118)"><tspan
       sodipodi:role="line"
       id="tspan3153-4"
       x="6504.5674"
       y="225.55861"
       style="font-style:normal;font-variant:normal;font-weight:bold;font-stretch:normal;font-family:Segoe UI;-inkscape-font-specification:Segoe UI Bold">VISUAL</tspan></text>
  <text
     xml:space="preserve"
     style="font-size:252.60095215000001000px;font-style:normal;font-weight:normal;line-height:125%;letter-spacing:0px;word-spacing:0px;fill:#ffffff;fill-opacity:1;stroke:none;font-family:Sans"
     x="7488.6377"
     y="225.55862"
     id="text3151-17-0"
     sodipodi:linespacing="125%"
     transform="scale(0.9145685,1.0934118)"><tspan
       sodipodi:role="line"
       id="tspan3153-4-9"
       x="7488.6377"
       y="225.55862"
       style="font-style:normal;font-variant:normal;font-weight:bold;font-stretch:normal;font-family:Segoe UI;-inkscape-font-specification:Segoe UI Bold;fill:#ffffff">VISUAL</tspan></text>
</svg>
